<svg xmlns="http://www.w3.org/2000/svg" viewBox="0 0 512 512">
  <defs>
    <linearGradient id="bg" x1="0" x2="1" y1="0" y2="1">
      <stop offset="0%" stop-color="#5ba85e"/>
      <stop offset="55%" stop-color="#8fc768"/>
      <stop offset="100%" stop-color="#efd86d"/>
    </linearGradient>
  </defs>
  <rect width="512" height="512" rx="120" fill="url(#bg)"/>
  <rect x="94" y="120" width="324" height="272" rx="46" fill="#ffffff" fill-opacity="0.92"/>
  <path d="M154 335c27-47 60-71 102-71s75 24 102 71" fill="none" stroke="#2d6a4f" stroke-width="28" stroke-linecap="round"/>
  <path d="M256 144c-38 20-58 53-58 92 0 9 1 17 3 25 16-15 37-23 55-23s39 8 55 23c2-8 3-16 3-25 0-39-20-72-58-92Z" fill="#4d8c43"/>
  <circle cx="256" cy="232" r="28" fill="#ffe58f"/>
</svg>
